<svg id="visual" viewBox="0 0 900 600" width="900" height="600" xmlns="http://www.w3.org/2000/svg" xmlns:xlink="http://www.w3.org/1999/xlink" version="1.1"><path d="M0 434L15 443.8C30 453.7 60 473.3 90 488.7C120 504 150 515 180 508C210 501 240 476 270 474.2C300 472.3 330 493.7 360 501.7C390 509.7 420 504.3 450 493.5C480 482.7 510 466.3 540 458.3C570 450.3 600 450.7 630 457.3C660 464 690 477 720 488.5C750 500 780 510 810 507.8C840 505.7 870 491.3 885 484.2L900 477L900 601L885 601C870 601 840 601 810 601C780 601 750 601 720 601C690 601 660 601 630 601C600 601 570 601 540 601C510 601 480 601 450 601C420 601 390 601 360 601C330 601 300 601 270 601C240 601 210 601 180 601C150 601 120 601 90 601C60 601 30 601 15 601L0 601Z" fill="#6B6A7A" stroke-linecap="round" stroke-linejoin="miter"></path></svg>