<svg id="visual" viewBox="0 0 1920 1080" width="1920" height="1080" xmlns="http://www.w3.org/2000/svg" xmlns:xlink="http://www.w3.org/1999/xlink" version="1.1"><path d="M0 392L15 404.3C30 416.7 60 441.3 90 460.7C120 480 150 494 180 485.3C210 476.7 240 445.3 270 443.2C300 441 330 468 360 478.2C390 488.3 420 481.7 450 468C480 454.3 510 433.7 540 423.5C570 413.3 600 413.7 630 422C660 430.3 690 446.7 720 461C750 475.3 780 487.7 810 485C840 482.3 870 464.7 885 455.8L900 447L900 601L885 601C870 601 840 601 810 601C780 601 750 601 720 601C690 601 660 601 630 601C600 601 570 601 540 601C510 601 480 601 450 601C420 601 390 601 360 601C330 601 300 601 270 601C240 601 210 601 180 601C150 601 120 601 90 601C60 601 30 601 15 601L0 601Z" fill="#4C4C5C" stroke-linecap="round" stroke-linejoin="miter"></path></svg>