<svg id="visual" viewBox="0 0 1920 1080" width="1920" height="1080" xmlns="http://www.w3.org/2000/svg" xmlns:xlink="http://www.w3.org/1999/xlink" version="1.1"><path d="M0 348L16.7 368.5C33.3 389 66.7 430 100 430.2C133.3 430.3 166.7 389.7 200 364.3C233.3 339 266.7 329 300 341.2C333.3 353.3 366.7 387.7 400 388C433.3 388.3 466.7 354.7 500 340.8C533.3 327 566.7 333 600 355C633.3 377 666.7 415 700 428.5C733.3 442 766.7 431 800 428.3C833.3 425.7 866.7 431.3 883.3 434.2L900 437L900 601L883.3 601C866.7 601 833.3 601 800 601C766.7 601 733.3 601 700 601C666.7 601 633.3 601 600 601C566.7 601 533.3 601 500 601C466.7 601 433.3 601 400 601C366.7 601 333.3 601 300 601C266.7 601 233.3 601 200 601C166.7 601 133.3 601 100 601C66.7 601 33.3 601 16.7 601L0 601Z" fill="#3A3A47" stroke-linecap="round" stroke-linejoin="miter"></path></svg>