<svg id="visual" viewBox="0 0 1920 1080" width="1920" height="1080" xmlns="http://www.w3.org/2000/svg" xmlns:xlink="http://www.w3.org/1999/xlink" version="1.1"><path d="M0 340L35.5 325.2C71 310.3 142 280.7 213.2 281.8C284.3 283 355.7 315 426.8 345.8C498 376.7 569 406.3 640 427.3C711 448.3 782 460.7 853.2 431.8C924.3 403 995.7 333 1066.8 325.3C1138 317.7 1209 372.3 1280 395.8C1351 419.3 1422 411.7 1493.2 385C1564.3 358.3 1635.7 312.7 1706.8 303.3C1778 294 1849 321 1884.5 334.5L1920 348L1920 0L1884.5 0C1849 0 1778 0 1706.8 0C1635.7 0 1564.3 0 1493.2 0C1422 0 1351 0 1280 0C1209 0 1138 0 1066.8 0C995.7 0 924.3 0 853.2 0C782 0 711 0 640 0C569 0 498 0 426.8 0C355.7 0 284.3 0 213.2 0C142 0 71 0 35.5 0L0 0Z" fill="#616172" stroke-linecap="round" stroke-linejoin="miter"></path></svg>